<?xml version="1.0"?>
<svg xmlns="http://www.w3.org/2000/svg" xmlns:xlink="http://www.w3.org/1999/xlink" xmlns:svgjs="http://svgjs.com/svgjs" version="1.1" width="512" height="512" x="0" y="0" viewBox="0 0 392.62 392.62" style="enable-background:new 0 0 512 512" xml:space="preserve" class=""><g>
<path xmlns="http://www.w3.org/2000/svg" d="M310.724,391.69H81.896C36.738,391.69,0,354.952,0,309.795V82.825C0,37.667,36.738,0.929,81.896,0.929h228.828  c45.158,0,81.896,36.738,81.896,81.896v226.97C392.62,354.952,355.881,391.69,310.724,391.69z M81.896,30.929  C53.28,30.929,30,54.209,30,82.825v226.97c0,28.615,23.28,51.896,51.896,51.896h228.828c28.616,0,51.896-23.28,51.896-51.896V82.825  c0-28.616-23.28-51.896-51.896-51.896H81.896z" fill="#ffffff" data-original="#000000" style=""/>
<g xmlns="http://www.w3.org/2000/svg">
	<path d="M300.406,127.317H92.213c-5.523,0-10-4.477-10-10s4.477-10,10-10h208.192c5.523,0,10,4.477,10,10   S305.929,127.317,300.406,127.317z" fill="#ffffff" data-original="#000000" style=""/>
	<path d="M266.92,166.278H125.699c-5.523,0-10-4.477-10-10s4.477-10,10-10H266.92c5.523,0,10,4.477,10,10   S272.443,166.278,266.92,166.278z" fill="#ffffff" data-original="#000000" style=""/>
	<path d="M300.406,207.381H92.213c-5.523,0-10-4.477-10-10s4.477-10,10-10h208.192c5.523,0,10,4.477,10,10   S305.929,207.381,300.406,207.381z" fill="#ffffff" data-original="#000000" style=""/>
	<path d="M266.92,246.342H125.699c-5.523,0-10-4.477-10-10s4.477-10,10-10H266.92c5.523,0,10,4.477,10,10   S272.443,246.342,266.92,246.342z" fill="#ffffff" data-original="#000000" style=""/>
	<path d="M300.406,285.303H92.213c-5.523,0-10-4.477-10-10s4.477-10,10-10h208.192c5.523,0,10,4.477,10,10   S305.929,285.303,300.406,285.303z" fill="#ffffff" data-original="#000000" style=""/>
</g>
<g xmlns="http://www.w3.org/2000/svg">
</g>
<g xmlns="http://www.w3.org/2000/svg">
</g>
<g xmlns="http://www.w3.org/2000/svg">
</g>
<g xmlns="http://www.w3.org/2000/svg">
</g>
<g xmlns="http://www.w3.org/2000/svg">
</g>
<g xmlns="http://www.w3.org/2000/svg">
</g>
<g xmlns="http://www.w3.org/2000/svg">
</g>
<g xmlns="http://www.w3.org/2000/svg">
</g>
<g xmlns="http://www.w3.org/2000/svg">
</g>
<g xmlns="http://www.w3.org/2000/svg">
</g>
<g xmlns="http://www.w3.org/2000/svg">
</g>
<g xmlns="http://www.w3.org/2000/svg">
</g>
<g xmlns="http://www.w3.org/2000/svg">
</g>
<g xmlns="http://www.w3.org/2000/svg">
</g>
<g xmlns="http://www.w3.org/2000/svg">
</g>
</g></svg>
