<?xml version="1.0"?>
<svg xmlns="http://www.w3.org/2000/svg" xmlns:xlink="http://www.w3.org/1999/xlink" xmlns:svgjs="http://svgjs.com/svgjs" version="1.1" width="512" height="512" x="0" y="0" viewBox="0 0 392.619 392.619" style="enable-background:new 0 0 512 512" xml:space="preserve" class=""><g>
<g xmlns="http://www.w3.org/2000/svg">
	<path d="M310.723,0.929H81.896C36.738,0.929,0,37.667,0,82.825v226.97c0,45.158,36.738,81.896,81.896,81.896h228.827   c45.158,0,81.896-36.738,81.896-81.896V82.825C392.619,37.667,355.881,0.929,310.723,0.929z M362.619,309.794   c0,28.616-23.28,51.896-51.896,51.896H81.896C53.28,361.69,30,338.41,30,309.794V82.825c0-28.616,23.28-51.896,51.896-51.896   h228.827c28.616,0,51.896,23.28,51.896,51.896V309.794z" fill="#ffffff" data-original="#000000" style="" class=""/>
	<path d="M263.825,96.94h-91.03c-8.284,0-15,6.716-15,15s6.716,15,15,15h26.102l-36.177,138.739h-33.925c-8.284,0-15,6.716-15,15   s6.716,15,15,15h45.402c0.041,0,0.082,0.004,0.123,0.004c0.031,0,0.062-0.004,0.093-0.004h45.411c8.284,0,15-6.716,15-15   s-6.716-15-15-15h-26.102L229.9,126.94h33.925c8.284,0,15-6.716,15-15S272.109,96.94,263.825,96.94z" fill="#ffffff" data-original="#000000" style="" class=""/>
</g>
<g xmlns="http://www.w3.org/2000/svg">
</g>
<g xmlns="http://www.w3.org/2000/svg">
</g>
<g xmlns="http://www.w3.org/2000/svg">
</g>
<g xmlns="http://www.w3.org/2000/svg">
</g>
<g xmlns="http://www.w3.org/2000/svg">
</g>
<g xmlns="http://www.w3.org/2000/svg">
</g>
<g xmlns="http://www.w3.org/2000/svg">
</g>
<g xmlns="http://www.w3.org/2000/svg">
</g>
<g xmlns="http://www.w3.org/2000/svg">
</g>
<g xmlns="http://www.w3.org/2000/svg">
</g>
<g xmlns="http://www.w3.org/2000/svg">
</g>
<g xmlns="http://www.w3.org/2000/svg">
</g>
<g xmlns="http://www.w3.org/2000/svg">
</g>
<g xmlns="http://www.w3.org/2000/svg">
</g>
<g xmlns="http://www.w3.org/2000/svg">
</g>
</g></svg>
