<svg id="Layer_1" data-name="Layer 1" xmlns="http://www.w3.org/2000/svg" viewBox="0 0 512 509.58"><title>justified</title><path d="M405.2,1.21H106.8A106.92,106.92,0,0,0,0,108V404a106.92,106.92,0,0,0,106.8,106.8H405.2A106.92,106.92,0,0,0,512,404V108A106.92,106.92,0,0,0,405.2,1.21ZM472.88,404a67.76,67.76,0,0,1-67.68,67.68H106.8A67.76,67.76,0,0,1,39.12,404V108A67.76,67.76,0,0,1,106.8,40.33H405.2A67.76,67.76,0,0,1,472.88,108Z" transform="translate(0 -1.21)" style="fill:#fff"/><path d="M391.75,140H120.25a13,13,0,0,0,0,26.08h271.5a13,13,0,1,0,0-26.08Z" transform="translate(0 -1.21)" style="fill:#fff"/><path d="M125.67,216.84H386.33c10.19,0,18.46-5.84,18.46-13s-8.27-13-18.46-13H125.67c-10.2,0-18.46,5.83-18.46,13S115.47,216.84,125.67,216.84Z" transform="translate(0 -1.21)" style="fill:#fff"/><path d="M391.75,244.36H120.25a13,13,0,0,0,0,26.08h271.5a13,13,0,1,0,0-26.08Z" transform="translate(0 -1.21)" style="fill:#fff"/><path d="M125.37,321.24H381.84c10,0,18.16-5.83,18.16-13s-8.13-13-18.16-13H125.37c-10,0-18.16,5.84-18.16,13S115.34,321.24,125.37,321.24Z" transform="translate(0 -1.21)" style="fill:#fff"/><path d="M391.75,346H120.25a13,13,0,0,0,0,26.08h271.5a13,13,0,1,0,0-26.08Z" transform="translate(0 -1.21)" style="fill:#fff"/></svg>