<?xml version="1.0"?>
<svg xmlns="http://www.w3.org/2000/svg" xmlns:xlink="http://www.w3.org/1999/xlink" xmlns:svgjs="http://svgjs.com/svgjs" version="1.1" width="512" height="512" x="0" y="0" viewBox="0 0 392.62 392.62" style="enable-background:new 0 0 512 512" xml:space="preserve" class=""><g>
<g xmlns="http://www.w3.org/2000/svg">
	<path d="M310.724,0.929H81.896C36.738,0.929,0,37.667,0,82.825v226.97c0,45.157,36.738,81.896,81.896,81.896h228.828   c45.157,0,81.896-36.738,81.896-81.896V82.825C392.62,37.667,355.881,0.929,310.724,0.929z M362.62,309.795   c0,28.615-23.28,51.896-51.896,51.896H81.896C53.28,361.69,30,338.41,30,309.795V82.825c0-28.616,23.28-51.896,51.896-51.896   h228.828c28.615,0,51.896,23.28,51.896,51.896V309.795z" fill="#ffffff" data-original="#000000" style="" class=""/>
	<path d="M300.406,265.303H92.213c-5.523,0-10,4.477-10,10s4.477,10,10,10h208.192c5.522,0,10-4.477,10-10   S305.928,265.303,300.406,265.303z" fill="#ffffff" data-original="#000000" style="" class=""/>
	<path d="M300.406,226.342H159.184c-5.523,0-10,4.477-10,10s4.477,10,10,10h141.222c5.522,0,10-4.477,10-10   S305.928,226.342,300.406,226.342z" fill="#ffffff" data-original="#000000" style="" class=""/>
	<path d="M300.406,185.239H92.213c-5.523,0-10,4.477-10,10s4.477,10,10,10h208.192c5.522,0,10-4.477,10-10   S305.928,185.239,300.406,185.239z" fill="#ffffff" data-original="#000000" style="" class=""/>
	<path d="M300.406,146.278H159.184c-5.523,0-10,4.477-10,10s4.477,10,10,10h141.222c5.522,0,10-4.477,10-10   S305.928,146.278,300.406,146.278z" fill="#ffffff" data-original="#000000" style="" class=""/>
	<path d="M300.406,107.317H92.213c-5.523,0-10,4.477-10,10s4.477,10,10,10h208.192c5.522,0,10-4.477,10-10   S305.928,107.317,300.406,107.317z" fill="#ffffff" data-original="#000000" style="" class=""/>
</g>
<g xmlns="http://www.w3.org/2000/svg">
</g>
<g xmlns="http://www.w3.org/2000/svg">
</g>
<g xmlns="http://www.w3.org/2000/svg">
</g>
<g xmlns="http://www.w3.org/2000/svg">
</g>
<g xmlns="http://www.w3.org/2000/svg">
</g>
<g xmlns="http://www.w3.org/2000/svg">
</g>
<g xmlns="http://www.w3.org/2000/svg">
</g>
<g xmlns="http://www.w3.org/2000/svg">
</g>
<g xmlns="http://www.w3.org/2000/svg">
</g>
<g xmlns="http://www.w3.org/2000/svg">
</g>
<g xmlns="http://www.w3.org/2000/svg">
</g>
<g xmlns="http://www.w3.org/2000/svg">
</g>
<g xmlns="http://www.w3.org/2000/svg">
</g>
<g xmlns="http://www.w3.org/2000/svg">
</g>
<g xmlns="http://www.w3.org/2000/svg">
</g>
</g></svg>
