<svg id="Layer_1" data-name="Layer 1" xmlns="http://www.w3.org/2000/svg" viewBox="0 0 512 509.58"><title>underline-text</title><path d="M405.2,1.21H106.8A106.92,106.92,0,0,0,0,108V404a106.92,106.92,0,0,0,106.8,106.8H405.2A106.92,106.92,0,0,0,512,404V108A106.92,106.92,0,0,0,405.2,1.21ZM472.88,404a67.76,67.76,0,0,1-67.68,67.68H106.8A67.76,67.76,0,0,1,39.12,404V108A67.76,67.76,0,0,1,106.8,40.33H405.2A67.76,67.76,0,0,1,472.88,108Z" transform="translate(0 -1.21)" style="fill:#fff"/><path d="M142.05,133.39q29.63-.9,41.77-1.43,15.19-.66,40.42-2.13l-2.15,80.95q-.71,22.86-.69,42.84t.35,27.57a117.32,117.32,0,0,0,3.13,24,38.29,38.29,0,0,0,8.31,16.1q5.79,6.51,15.71,9.5a61.53,61.53,0,0,0,20.55,2.53,56.93,56.93,0,0,0,17-3.23A39.31,39.31,0,0,0,297.37,324a38,38,0,0,0,7.25-8.24A56,56,0,0,0,311,301.86q2.71-7.82,3.7-20.09,1.17-12.51,2.1-56.73.84-37.65.82-68.91-.18-30.34.77-30.39l45.2-2,38.55-1.67L398.8,257.34c0,2.53,0,4.63.09,6.27q.94,39.54-2.43,55.95a73.7,73.7,0,0,1-12.36,28.79q-9,12.38-26.8,22.76a139.2,139.2,0,0,1-40.82,15.37,276.76,276.76,0,0,1-46.75,6,271.14,271.14,0,0,1-41.16-1.26,160.7,160.7,0,0,1-33.25-7.4,117.5,117.5,0,0,1-26-12.48q-10.2-6.78-15.84-14.05a59.71,59.71,0,0,1-9.14-17.59,90.27,90.27,0,0,1-4.51-25.11q-.19-4.55-.22-13.78t.57-26.57l1.16-30.49q.44-12,.57-35.22Z" transform="translate(0 -1.21)" style="fill:#fff"/></svg>