<svg id="Layer_1" data-name="Layer 1" xmlns="http://www.w3.org/2000/svg" viewBox="0 0 36.51 41.01"><title>circle-stroke</title><g style="opacity:0.64"><circle cx="7.19" cy="7.19" r="6.69"/><path d="M12.5,7.12a6.19,6.19,0,1,1-6.19,6.19A6.19,6.19,0,0,1,12.5,7.12m0-1a7.19,7.19,0,1,0,7.19,7.19A7.19,7.19,0,0,0,12.5,6.12Z" transform="translate(-5.31 -6.12)"/></g><g style="opacity:0.64"><path d="M34.63,30.94a6.69,6.69,0,1,1,6.69-6.69A6.7,6.7,0,0,1,34.63,30.94Z" transform="translate(-5.31 -6.12)"/><path d="M34.63,18.06a6.19,6.19,0,1,1-6.19,6.19,6.2,6.2,0,0,1,6.19-6.19m0-1a7.19,7.19,0,1,0,7.19,7.19,7.19,7.19,0,0,0-7.19-7.19Z" transform="translate(-5.31 -6.12)"/></g><path d="M35.28,42a4.59,4.59,0,1,1,4.59-4.59A4.6,4.6,0,0,1,35.28,42Z" transform="translate(-5.31 -6.12)"/><path d="M35.28,33.28a4.09,4.09,0,1,1-4.09,4.09,4.09,4.09,0,0,1,4.09-4.09m0-1a5.09,5.09,0,1,0,5.09,5.09,5.09,5.09,0,0,0-5.09-5.09Z" transform="translate(-5.31 -6.12)"/><g style="opacity:0.5"><path d="M20.29,29.08a4.59,4.59,0,1,1,4.58-4.59A4.6,4.6,0,0,1,20.29,29.08Z" transform="translate(-5.31 -6.12)"/><path d="M20.29,20.41a4.09,4.09,0,1,1-4.09,4.08,4.08,4.08,0,0,1,4.09-4.08m0-1a5.09,5.09,0,1,0,5.08,5.08,5.08,5.08,0,0,0-5.08-5.08Z" transform="translate(-5.31 -6.12)"/></g><g style="opacity:0.5"><path d="M24.94,38.26A3.27,3.27,0,1,1,28.21,35,3.28,3.28,0,0,1,24.94,38.26Z" transform="translate(-5.31 -6.12)"/><path d="M24.94,32.22A2.77,2.77,0,1,1,22.17,35a2.77,2.77,0,0,1,2.77-2.77m0-1A3.77,3.77,0,1,0,28.71,35a3.77,3.77,0,0,0-3.77-3.77Z" transform="translate(-5.31 -6.12)"/></g><g style="opacity:0.64"><path d="M9.36,27.52a3.27,3.27,0,1,1,3.27-3.27A3.27,3.27,0,0,1,9.36,27.52Z" transform="translate(-5.31 -6.12)"/><path d="M9.36,21.48A2.77,2.77,0,1,1,6.6,24.25a2.77,2.77,0,0,1,2.76-2.77m0-1a3.77,3.77,0,1,0,3.77,3.77,3.76,3.76,0,0,0-3.77-3.77Z" transform="translate(-5.31 -6.12)"/></g><g style="opacity:0.64"><circle cx="16.21" cy="36.87" r="3.64"/><path d="M21.53,39.85A3.14,3.14,0,1,1,18.39,43a3.15,3.15,0,0,1,3.14-3.14m0-1A4.14,4.14,0,1,0,25.67,43a4.14,4.14,0,0,0-4.14-4.14Z" transform="translate(-5.31 -6.12)"/></g><g style="opacity:0.64"><path d="M37.73,13.15A3.27,3.27,0,1,1,41,9.89,3.27,3.27,0,0,1,37.73,13.15Z" transform="translate(-5.31 -6.12)"/><path d="M37.73,7.12A2.77,2.77,0,1,1,35,9.89a2.77,2.77,0,0,1,2.77-2.77m0-1A3.77,3.77,0,1,0,41.5,9.89a3.77,3.77,0,0,0-3.77-3.77Z" transform="translate(-5.31 -6.12)"/></g><path d="M12.5,42.49a6.69,6.69,0,1,1,6.7-6.69A6.7,6.7,0,0,1,12.5,42.49Z" transform="translate(-5.31 -6.12)"/><path d="M12.5,29.61A6.19,6.19,0,1,1,6.31,35.8a6.19,6.19,0,0,1,6.19-6.19m0-1a7.19,7.19,0,1,0,7.19,7.19,7.19,7.19,0,0,0-7.19-7.19Z" transform="translate(-5.31 -6.12)"/><path d="M27.44,16.8a5.09,5.09,0,1,1,5.09-5.09A5.09,5.09,0,0,1,27.44,16.8Z" transform="translate(-5.31 -6.12)"/><path d="M27.44,7.12a4.59,4.59,0,1,1-4.59,4.59,4.6,4.6,0,0,1,4.59-4.59m0-1A5.59,5.59,0,1,0,33,11.71a5.59,5.59,0,0,0-5.59-5.59Z" transform="translate(-5.31 -6.12)"/><path d="M28.69,45.67a2.2,2.2,0,1,1,2.2-2.2A2.21,2.21,0,0,1,28.69,45.67Z" transform="translate(-5.31 -6.12)"/><path d="M28.69,41.77a1.7,1.7,0,1,1-1.7,1.7,1.7,1.7,0,0,1,1.7-1.7m0-1a2.7,2.7,0,1,0,2.7,2.7,2.7,2.7,0,0,0-2.7-2.7Z" transform="translate(-5.31 -6.12)"/></svg>