<svg id="Layer_3" data-name="Layer 3" xmlns="http://www.w3.org/2000/svg" viewBox="0 0 47.96 48"><title>hLine-stroke</title><path d="M17.63,47.14H30.34a3.07,3.07,0,0,1-.5.13l-.06,0h0l-.93.22c-.16,0-.33.07-.5.09l-.65.11h0l-.34,0-.5.07-1,.1-.51,0-1,0h-.5c-.34,0-.67,0-1,0l-.5,0c-.34,0-.67,0-1-.09l-.5-.07-.51-.07h0l-.48-.08a4,4,0,0,1-.5-.09c-.34-.06-.67-.14-1-.23l-.1,0h0l-.4-.1Z" transform="translate(-0.02)"/><path d="M11.81,44.66H36.19a3.79,3.79,0,0,1-.34.2l-.09,0a8.82,8.82,0,0,1-.91.48,1.06,1.06,0,0,1-.21.11l-.29.14,0,0H13.69l-.33-.16,0,0a8.75,8.75,0,0,1-1-.53l-.08,0Z" transform="translate(-0.02)"/><path d="M8.35,42.18h31.3l-.29.25-.5.41c-.14.12-.29.23-.44.34H9.59L9.31,43l-.5-.4Z" transform="translate(-0.02)"/><path d="M5.86,39.7H42.14l-.06.07c-.07.09-.15.17-.22.25-.2.24-.42.46-.63.68H6.77c-.16-.16-.31-.33-.46-.5s-.26-.28-.39-.43Z" transform="translate(-0.02)"/><path d="M4,37.21H44l-.15.24c-.16.25-.33.48-.51.72l0,0H4.67c-.13-.17-.25-.34-.37-.52Z" transform="translate(-0.02)"/><path d="M2.54,34.73H45.46l-.09.18c-.14.28-.28.54-.44.82H3.07l-.27-.49C2.71,35.07,2.62,34.91,2.54,34.73Z" transform="translate(-0.02)"/><path d="M1.46,32.25H46.53c-.05.15-.1.29-.16.44a5.55,5.55,0,0,1-.24.56H1.86l-.06-.14C1.68,32.83,1.57,32.54,1.46,32.25Z" transform="translate(-0.02)"/><path d="M.71,29.77H47.29a.36.36,0,0,1,0,.1c-.07.3-.16.6-.25.9H1c-.09-.3-.18-.6-.25-.9A.36.36,0,0,1,.71,29.77Z" transform="translate(-0.02)"/><path d="M.39,28.29H47.61c0-.27.09-.54.13-.81h0a1.1,1.1,0,0,0,0-.18H.24Z" transform="translate(-0.02)"/><polygon points="0 24.81 47.96 24.81 47.9 25.81 0.06 25.81 0 24.81"/><path d="M0,23.33H48c0-.34,0-.67,0-1H.07Z" transform="translate(-0.02)"/><path d="M.22,20.85H47.78c0-.11,0-.21,0-.32h0c0-.22-.06-.45-.11-.67H.37Z" transform="translate(-0.02)"/><path d="M.93,17.37H47.07c.07.25.14.5.2.76a2,2,0,0,1,0,.24H.67l.06-.24C.79,17.88.86,17.62.93,17.37Z" transform="translate(-0.02)"/><path d="M1.8,14.89H46.19c.07.14.12.28.18.42s.15.38.21.58H1.41C1.53,15.55,1.66,15.22,1.8,14.89Z" transform="translate(-0.02)"/><path d="M3,12.4H45c.13.23.26.45.37.68s.1.21.16.32H2.48c.1-.22.21-.43.32-.64S2.93,12.52,3,12.4Z" transform="translate(-0.02)"/><path d="M4.58,9.92H43.43c.15.21.3.41.44.63l.24.37H3.89c.13-.21.27-.41.41-.61Z" transform="translate(-0.02)"/><path d="M6.63,7.44H41.37l.49.54c.07.08.15.16.22.25l.18.21H5.74l.06-.07.12-.14.39-.44C6.42,7.67,6.52,7.55,6.63,7.44Z" transform="translate(-0.02)"/><path d="M9.4,5H38.6l.26.2.5.41.45.39H8.19l.62-.53.5-.4Z" transform="translate(-0.02)"/><path d="M13.4,2.48H34.6l0,0,.21.1c.31.15.61.31.91.49l.09.05.5.29.08,0H11.57l.24-.14.43-.25.08,0a8.75,8.75,0,0,1,1-.53l0,0Z" transform="translate(-0.02)"/><path d="M24,0c.44,0,.88,0,1.31.05h0l.51,0,1,.1.5.07.34,0h0l.65.11c.17,0,.34.06.5.09l.93.22h0l.06,0a3.07,3.07,0,0,1,.5.13l.51.14H17.13l.69-.19.4-.1h0l.1,0c.33-.09.66-.17,1-.23a4,4,0,0,1,.5-.09l.48-.08h0l.51-.07.5-.07,1-.09h0C22.88,0,23.44,0,24,0Z" transform="translate(-0.02)"/></svg>