<svg xmlns="http://www.w3.org/2000/svg" viewBox="0 0 47.74 48"><title>pattern-stroke</title><g id="Layer_3" data-name="Layer 3"><path d="M12.18,3.12a1.72,1.72,0,0,1-.9.55A10.3,10.3,0,0,1,12.18,3.12Z" transform="translate(-0.13)"/><path d="M17.07,1.87A1.87,1.87,0,0,1,15.2,3.74a1.83,1.83,0,0,1-1.76-1.28,22.87,22.87,0,0,1,3.44-1.38h0A1.76,1.76,0,0,1,17.07,1.87Z" transform="translate(-0.13)"/><path d="M21.47,1.87a1.87,1.87,0,1,1-3.74,0,1.84,1.84,0,0,1,.4-1.14A21,21,0,0,1,20.52.26h0A1.84,1.84,0,0,1,21.47,1.87Z" transform="translate(-0.13)"/><circle cx="23.87" cy="1.87" r="1.87"/><path d="M30.27,1.87a1.87,1.87,0,0,1-3.74,0A1.84,1.84,0,0,1,27.47.26h0a21,21,0,0,1,2.39.47A1.84,1.84,0,0,1,30.27,1.87Z" transform="translate(-0.13)"/><path d="M34.57,2.46a1.87,1.87,0,0,1-3.64-.59,1.65,1.65,0,0,1,.19-.79A23,23,0,0,1,34.57,2.46Z" transform="translate(-0.13)"/><path d="M36.75,3.68a1.66,1.66,0,0,1-.93-.56C36.14,3.29,36.45,3.48,36.75,3.68Z" transform="translate(-0.13)"/><path d="M8.27,6.3A1.87,1.87,0,0,1,6.4,8.17a1.72,1.72,0,0,1-.39,0A21.05,21.05,0,0,1,8.23,5.92,1.58,1.58,0,0,1,8.27,6.3Z" transform="translate(-0.13)"/><circle cx="10.67" cy="6.3" r="1.87"/><circle cx="15.07" cy="6.3" r="1.87"/><circle cx="19.47" cy="6.3" r="1.87"/><circle cx="23.87" cy="6.3" r="1.87"/><circle cx="28.27" cy="6.3" r="1.87"/><circle cx="32.67" cy="6.3" r="1.87"/><circle cx="37.07" cy="6.3" r="1.87"/><path d="M42,8.13a1.72,1.72,0,0,1-.39,0A1.87,1.87,0,0,1,39.73,6.3a1.58,1.58,0,0,1,0-.38A21.05,21.05,0,0,1,42,8.13Z" transform="translate(-0.13)"/><path d="M3.84,11a1.82,1.82,0,0,1-.75,1.24C3.32,11.82,3.57,11.41,3.84,11Z" transform="translate(-0.13)"/><circle cx="6.27" cy="10.72" r="1.87"/><circle cx="10.67" cy="10.72" r="1.87"/><circle cx="15.07" cy="10.72" r="1.87"/><circle cx="19.47" cy="10.72" r="1.87"/><circle cx="23.87" cy="10.72" r="1.87"/><circle cx="28.27" cy="10.72" r="1.87"/><circle cx="32.67" cy="10.72" r="1.87"/><circle cx="37.07" cy="10.72" r="1.87"/><circle cx="41.47" cy="10.72" r="1.87"/><path d="M44.91,12.24A1.82,1.82,0,0,1,44.16,11C44.43,11.41,44.68,11.82,44.91,12.24Z" transform="translate(-0.13)"/><path d="M3.87,15.15A1.87,1.87,0,0,1,2,17a1.7,1.7,0,0,1-.89-.24A21.68,21.68,0,0,1,2.5,13.36,1.83,1.83,0,0,1,3.87,15.15Z" transform="translate(-0.13)"/><circle cx="6.27" cy="15.15" r="1.87"/><circle cx="10.67" cy="15.15" r="1.87"/><circle cx="15.07" cy="15.15" r="1.87"/><circle cx="19.47" cy="15.15" r="1.87"/><circle cx="23.87" cy="15.15" r="1.87"/><circle cx="28.27" cy="15.15" r="1.87"/><circle cx="32.67" cy="15.15" r="1.87"/><circle cx="37.07" cy="15.15" r="1.87"/><circle cx="41.47" cy="15.15" r="1.87"/><path d="M46.89,16.78A1.7,1.7,0,0,1,46,17a1.87,1.87,0,0,1-1.87-1.87,1.83,1.83,0,0,1,1.37-1.79A21.68,21.68,0,0,1,46.89,16.78Z" transform="translate(-0.13)"/><path d="M3.87,19.57a1.87,1.87,0,0,1-3.58.75s0,0,0,0a17.81,17.81,0,0,1,.42-2.08h0a1.87,1.87,0,0,1,3.16,1.35Z" transform="translate(-0.13)"/><circle cx="6.27" cy="19.57" r="1.87"/><circle cx="10.67" cy="19.57" r="1.87"/><circle cx="15.07" cy="19.57" r="1.87"/><circle cx="19.47" cy="19.57" r="1.87"/><circle cx="23.87" cy="19.57" r="1.87"/><circle cx="28.27" cy="19.57" r="1.87"/><circle cx="32.67" cy="19.57" r="1.87"/><circle cx="37.07" cy="19.57" r="1.87"/><circle cx="41.47" cy="19.57" r="1.87"/><circle cx="45.87" cy="19.57" r="1.87"/><circle cx="1.87" cy="24" r="1.87"/><circle cx="6.27" cy="24" r="1.87"/><circle cx="10.67" cy="24" r="1.87"/><circle cx="15.07" cy="24" r="1.87"/><circle cx="19.47" cy="24" r="1.87"/><circle cx="23.87" cy="24" r="1.87"/><circle cx="28.27" cy="24" r="1.87"/><circle cx="32.67" cy="24" r="1.87"/><circle cx="37.07" cy="24" r="1.87"/><circle cx="41.47" cy="24" r="1.87"/><circle cx="45.87" cy="24" r="1.87"/><path d="M3.87,28.43A1.87,1.87,0,0,1,.71,29.78h0a17.81,17.81,0,0,1-.42-2.08s0,0,0,0a1.87,1.87,0,0,1,3.58.75Z" transform="translate(-0.13)"/><circle cx="6.27" cy="28.43" r="1.87"/><circle cx="10.67" cy="28.43" r="1.87"/><circle cx="15.07" cy="28.43" r="1.87"/><circle cx="19.47" cy="28.43" r="1.87"/><circle cx="23.87" cy="28.43" r="1.87"/><circle cx="28.27" cy="28.43" r="1.87"/><circle cx="32.67" cy="28.43" r="1.87"/><circle cx="37.07" cy="28.43" r="1.87"/><circle cx="41.47" cy="28.43" r="1.87"/><circle cx="45.87" cy="28.43" r="1.87"/><path d="M3.87,32.85A1.83,1.83,0,0,1,2.5,34.64a21.68,21.68,0,0,1-1.39-3.42A1.7,1.7,0,0,1,2,31,1.87,1.87,0,0,1,3.87,32.85Z" transform="translate(-0.13)"/><circle cx="6.27" cy="32.85" r="1.87"/><circle cx="10.67" cy="32.85" r="1.87"/><circle cx="15.07" cy="32.85" r="1.87"/><circle cx="19.47" cy="32.85" r="1.87"/><circle cx="23.87" cy="32.85" r="1.87"/><circle cx="28.27" cy="32.85" r="1.87"/><circle cx="32.67" cy="32.85" r="1.87"/><circle cx="37.07" cy="32.85" r="1.87"/><circle cx="41.47" cy="32.85" r="1.87"/><path d="M46.89,31.22a21.68,21.68,0,0,1-1.39,3.42,1.83,1.83,0,0,1-1.37-1.79A1.87,1.87,0,0,1,46,31,1.7,1.7,0,0,1,46.89,31.22Z" transform="translate(-0.13)"/><path d="M3.84,37c-.27-.41-.52-.82-.75-1.24A1.82,1.82,0,0,1,3.84,37Z" transform="translate(-0.13)"/><circle cx="6.27" cy="37.28" r="1.87"/><circle cx="10.67" cy="37.28" r="1.87"/><circle cx="15.07" cy="37.28" r="1.87"/><circle cx="19.47" cy="37.28" r="1.87"/><circle cx="23.87" cy="37.28" r="1.87"/><circle cx="28.27" cy="37.28" r="1.87"/><circle cx="32.67" cy="37.28" r="1.87"/><circle cx="37.07" cy="37.28" r="1.87"/><circle cx="41.47" cy="37.28" r="1.87"/><path d="M44.91,35.76c-.23.42-.48.83-.75,1.24A1.82,1.82,0,0,1,44.91,35.76Z" transform="translate(-0.13)"/><path d="M8.27,41.7a1.58,1.58,0,0,1,0,.38A21.05,21.05,0,0,1,6,39.87a1.72,1.72,0,0,1,.39,0A1.87,1.87,0,0,1,8.27,41.7Z" transform="translate(-0.13)"/><circle cx="10.67" cy="41.7" r="1.87"/><circle cx="15.07" cy="41.7" r="1.87"/><circle cx="19.47" cy="41.7" r="1.87"/><circle cx="23.87" cy="41.7" r="1.87"/><circle cx="28.27" cy="41.7" r="1.87"/><circle cx="32.67" cy="41.7" r="1.87"/><circle cx="37.07" cy="41.7" r="1.87"/><path d="M42,39.87a21.05,21.05,0,0,1-2.22,2.21,1.58,1.58,0,0,1,0-.38,1.87,1.87,0,0,1,1.87-1.87A1.72,1.72,0,0,1,42,39.87Z" transform="translate(-0.13)"/><path d="M12.18,44.88a10.3,10.3,0,0,1-.9-.55A1.72,1.72,0,0,1,12.18,44.88Z" transform="translate(-0.13)"/><path d="M17.07,46.13a1.76,1.76,0,0,1-.18.79h0a22.87,22.87,0,0,1-3.44-1.38,1.83,1.83,0,0,1,1.76-1.28A1.87,1.87,0,0,1,17.07,46.13Z" transform="translate(-0.13)"/><path d="M21.47,46.13a1.84,1.84,0,0,1-.94,1.61h0a21,21,0,0,1-2.39-.47,1.84,1.84,0,0,1-.4-1.14,1.87,1.87,0,1,1,3.74,0Z" transform="translate(-0.13)"/><circle cx="23.87" cy="46.13" r="1.87"/><path d="M30.27,46.13a1.84,1.84,0,0,1-.4,1.14,21,21,0,0,1-2.39.47h0a1.84,1.84,0,0,1-.94-1.61,1.87,1.87,0,1,1,3.74,0Z" transform="translate(-0.13)"/><path d="M34.56,45.54a22.87,22.87,0,0,1-3.44,1.38h0a1.76,1.76,0,0,1-.18-.79,1.87,1.87,0,0,1,1.87-1.87A1.83,1.83,0,0,1,34.56,45.54Z" transform="translate(-0.13)"/><path d="M36.74,44.32a10.74,10.74,0,0,1-.92.56A1.79,1.79,0,0,1,36.74,44.32Z" transform="translate(-0.13)"/></g></svg>