<svg id="Layer_3" data-name="Layer 3" xmlns="http://www.w3.org/2000/svg" viewBox="0 0 46.04 42.56"><title>spray-stroke</title><path d="M8.18,12a.76.76,0,0,1-.75-.74.77.77,0,0,1,.73-.77h0A.75.75,0,1,1,8.21,12Z" transform="translate(-0.85 -2.23)"/><path d="M8.19,10h0a1.26,1.26,0,0,0,0,2.51h0a1.26,1.26,0,0,0,0-2.51Z" transform="translate(-0.85 -2.23)"/><path d="M38.61,12a.75.75,0,0,1-.75-.73.74.74,0,0,1,.2-.54.77.77,0,0,1,.53-.24h0a.75.75,0,0,1,.77.73.74.74,0,0,1-.73.77Z" transform="translate(-0.85 -2.23)"/><path d="M38.61,10h0a1.26,1.26,0,0,0,0,2.51h0a1.26,1.26,0,0,0,0-2.51Z" transform="translate(-0.85 -2.23)"/><path d="M15.46,25a.74.74,0,0,1-.75-.73.77.77,0,0,1,.2-.54.76.76,0,0,1,.53-.23h0a.75.75,0,0,1,.77.73.73.73,0,0,1-.2.54.74.74,0,0,1-.53.23Z" transform="translate(-0.85 -2.23)"/><path d="M15.46,23h0a1.25,1.25,0,0,0,0,2.5h0a1.25,1.25,0,0,0,0-2.5Z" transform="translate(-0.85 -2.23)"/><path d="M6.36,28.88a.74.74,0,0,1-.75-.73.77.77,0,0,1,.2-.54.76.76,0,0,1,.53-.23h0a.75.75,0,0,1,.77.73.69.69,0,0,1-.2.53.77.77,0,0,1-.53.24Z" transform="translate(-0.85 -2.23)"/><path d="M6.36,26.88h0a1.24,1.24,0,0,0-1.22,1.28,1.26,1.26,0,0,0,1.25,1.22h0a1.25,1.25,0,0,0,0-2.5Z" transform="translate(-0.85 -2.23)"/><path d="M22.4,12a.75.75,0,0,1-.75-.74.74.74,0,0,1,.73-.77h0a.75.75,0,0,1,.77.73.77.77,0,0,1-.2.54.72.72,0,0,1-.53.23Z" transform="translate(-0.85 -2.23)"/><path d="M22.4,10h0a1.26,1.26,0,0,0,0,2.51h0a1.26,1.26,0,0,0,0-2.51Z" transform="translate(-0.85 -2.23)"/><path d="M29.38,4.24a.74.74,0,0,1-.75-.73.73.73,0,0,1,.2-.54.75.75,0,0,1,.53-.24h0a.75.75,0,0,1,.77.73.76.76,0,0,1-.21.54.73.73,0,0,1-.52.24Z" transform="translate(-0.85 -2.23)"/><path d="M29.38,2.23h0a1.26,1.26,0,0,0,0,2.51h0a1.26,1.26,0,0,0,0-2.51Z" transform="translate(-0.85 -2.23)"/><path d="M14.87,4.49a.75.75,0,0,1,0-1.5h0a.75.75,0,0,1,.77.73.78.78,0,0,1-.21.54.72.72,0,0,1-.52.23Z" transform="translate(-0.85 -2.23)"/><path d="M14.87,2.49h0a1.25,1.25,0,0,0,0,2.5h0a1.25,1.25,0,0,0,0-2.5Z" transform="translate(-0.85 -2.23)"/><path d="M29.38,25a.74.74,0,0,1-.75-.73.73.73,0,0,1,.2-.54.74.74,0,0,1,.53-.23h0a.75.75,0,0,1,.77.73.78.78,0,0,1-.21.54.72.72,0,0,1-.52.23Z" transform="translate(-0.85 -2.23)"/><path d="M29.38,23h0a1.25,1.25,0,0,0,0,2.5h0a1.25,1.25,0,0,0,0-2.5Z" transform="translate(-0.85 -2.23)"/><path d="M21.14,22.65a.75.75,0,0,1-.75-.73.78.78,0,0,1,.21-.54.74.74,0,0,1,.52-.23h0a.75.75,0,0,1,.77.73.78.78,0,0,1-.21.54.74.74,0,0,1-.52.23Z" transform="translate(-0.85 -2.23)"/><path d="M21.15,20.65h0a1.25,1.25,0,0,0,0,2.5h0a1.25,1.25,0,0,0,0-2.5Z" transform="translate(-0.85 -2.23)"/><path d="M16.12,16.37a.75.75,0,0,1-.75-.73.7.7,0,0,1,.2-.54.77.77,0,0,1,.53-.24h0a.75.75,0,0,1,.77.73.75.75,0,0,1-.73.78Z" transform="translate(-0.85 -2.23)"/><path d="M16.12,14.36h0a1.26,1.26,0,0,0,0,2.51h0a1.26,1.26,0,0,0,0-2.51Z" transform="translate(-0.85 -2.23)"/><path d="M45.63,24.75a.74.74,0,0,1-.75-.73.76.76,0,0,1,.73-.77h0a.75.75,0,0,1,.77.73.74.74,0,0,1-.72.77Z" transform="translate(-0.85 -2.23)"/><path d="M45.63,22.75h0a1.25,1.25,0,0,0,0,2.5h0a1.25,1.25,0,0,0,0-2.5Z" transform="translate(-0.85 -2.23)"/><path d="M42.51,15.6a.76.76,0,0,1,0-1.51h0a.76.76,0,0,1,0,1.51Z" transform="translate(-0.85 -2.23)"/><path d="M42.51,13.59h0a1.26,1.26,0,0,0,0,2.51h0a1.26,1.26,0,0,0,0-2.51Z" transform="translate(-0.85 -2.23)"/><path d="M2.1,24.75a.75.75,0,0,1,0-1.5h0a.75.75,0,0,1,.77.73.73.73,0,0,1-.2.54.76.76,0,0,1-.53.23Z" transform="translate(-0.85 -2.23)"/><path d="M2.1,22.75h0a1.25,1.25,0,0,0,0,2.5h0a1.25,1.25,0,0,0,0-2.5Z" transform="translate(-0.85 -2.23)"/><path d="M22.4,35.22a.75.75,0,0,1,0-1.5h0a.75.75,0,1,1,0,1.5Z" transform="translate(-0.85 -2.23)"/><path d="M22.4,33.22h0a1.25,1.25,0,0,0,0,2.5h0a1.25,1.25,0,0,0,0-2.5Z" transform="translate(-0.85 -2.23)"/><path d="M8.88,35.82a.76.76,0,0,1,0-1.51h0a.75.75,0,0,1,.77.73.75.75,0,0,1-.73.78Z" transform="translate(-0.85 -2.23)"/><path d="M8.88,33.81h0a1.26,1.26,0,0,0,0,2.51h0a1.26,1.26,0,0,0,0-2.51Z" transform="translate(-0.85 -2.23)"/><path d="M39.3,35.82a.74.74,0,0,1-.75-.73.76.76,0,0,1,.73-.78h0a.77.77,0,0,1,.78.73.78.78,0,0,1-.21.54.75.75,0,0,1-.52.24Z" transform="translate(-0.85 -2.23)"/><path d="M39.3,33.81h0a1.26,1.26,0,0,0,0,2.51h0a1.26,1.26,0,0,0,0-2.51Z" transform="translate(-0.85 -2.23)"/><path d="M29.38,44.07a.74.74,0,0,1-.75-.73.74.74,0,0,1,.72-.77h0a.75.75,0,1,1,0,1.5Z" transform="translate(-0.85 -2.23)"/><path d="M29.38,42.07h0a1.25,1.25,0,0,0,0,2.5h0a1.25,1.25,0,0,0,0-2.5Z" transform="translate(-0.85 -2.23)"/><path d="M15.46,44.07a.74.74,0,0,1-.75-.73.77.77,0,0,1,.2-.54.76.76,0,0,1,.53-.23h0a.75.75,0,1,1,0,1.5Z" transform="translate(-0.85 -2.23)"/><path d="M15.46,42.07h0a1.25,1.25,0,0,0,0,2.5h0a1.25,1.25,0,0,0,0-2.5Z" transform="translate(-0.85 -2.23)"/><g style="opacity:0.71"><path d="M10.47,18.64a.23.23,0,0,1-.23-.23.25.25,0,0,1,.06-.17.27.27,0,0,1,.17-.08h0a.24.24,0,0,1,.24.23.25.25,0,0,1-.23.25Z" transform="translate(-0.85 -2.23)"/><path d="M10.47,17.66h0a.74.74,0,0,0,0,1.48h0a.75.75,0,0,0,.71-.76.74.74,0,0,0-.74-.72Z" transform="translate(-0.85 -2.23)"/></g><g style="opacity:0.71"><path d="M38.38,20.88a.22.22,0,0,1-.23-.22.21.21,0,0,1,.06-.17.23.23,0,0,1,.17-.08h0a.24.24,0,0,1,.24.23.23.23,0,0,1-.07.17.2.2,0,0,1-.16.07Z" transform="translate(-0.85 -2.23)"/><path d="M38.38,19.91h0a.74.74,0,0,0,0,1.47h0a.74.74,0,0,0,0-1.47Z" transform="translate(-0.85 -2.23)"/></g><g style="opacity:0.71"><path d="M24.78,28.49a.23.23,0,0,1-.24-.23.23.23,0,0,1,.07-.17.2.2,0,0,1,.16-.07h0a.23.23,0,0,1,.24.22.21.21,0,0,1-.06.17.23.23,0,0,1-.17.08Z" transform="translate(-0.85 -2.23)"/><path d="M24.78,27.52h0a.74.74,0,0,0,0,1.47h0a.74.74,0,0,0,0-1.47Z" transform="translate(-0.85 -2.23)"/></g><g style="opacity:0.71"><path d="M28.85,20.88a.23.23,0,0,1-.23-.22.24.24,0,0,1,.23-.25h0a.24.24,0,1,1,0,.47Z" transform="translate(-0.85 -2.23)"/><path d="M28.85,19.91h0a.74.74,0,0,0,0,1.47h0a.74.74,0,0,0,0-1.47Z" transform="translate(-0.85 -2.23)"/></g><g style="opacity:0.71"><path d="M33,16.31a.24.24,0,0,1,0-.47h0a.23.23,0,0,1,.24.22.25.25,0,0,1-.06.17.23.23,0,0,1-.17.08Z" transform="translate(-0.85 -2.23)"/><path d="M33,15.34h0a.74.74,0,0,0,0,1.47h0a.74.74,0,0,0,0-1.47Z" transform="translate(-0.85 -2.23)"/></g><g style="opacity:0.71"><path d="M23.65,5.41a.24.24,0,1,1,0-.47h0a.23.23,0,0,1,.24.23.2.2,0,0,1-.06.16.23.23,0,0,1-.17.08Z" transform="translate(-0.85 -2.23)"/><path d="M23.65,4.44h0a.74.74,0,0,0,0,1.47h0a.74.74,0,0,0,0-1.47Z" transform="translate(-0.85 -2.23)"/></g><g style="opacity:0.71"><path d="M24.43,16.46a.23.23,0,0,1-.24-.23.23.23,0,0,1,.07-.17.24.24,0,0,1,.16-.08h0a.23.23,0,0,1,.24.23.21.21,0,0,1-.06.17.27.27,0,0,1-.17.08Z" transform="translate(-0.85 -2.23)"/><path d="M24.43,15.48h0a.75.75,0,0,0-.72.76.74.74,0,0,0,.74.72h0a.74.74,0,0,0,0-1.48Z" transform="translate(-0.85 -2.23)"/></g><g style="opacity:0.71"><path d="M33,28.49a.23.23,0,0,1-.24-.23.27.27,0,0,1,.06-.17A.23.23,0,0,1,33,28h0a.23.23,0,0,1,.24.22.25.25,0,0,1-.06.17.23.23,0,0,1-.17.08Z" transform="translate(-0.85 -2.23)"/><path d="M33,27.52h0A.74.74,0,0,0,33,29h0a.74.74,0,0,0,.71-.76.72.72,0,0,0-.73-.71Z" transform="translate(-0.85 -2.23)"/></g><g style="opacity:0.71"><path d="M42.51,28.36a.24.24,0,0,1-.24-.22.25.25,0,0,1,.23-.25h0a.24.24,0,0,1,.25.23.23.23,0,0,1-.07.17.2.2,0,0,1-.16.07Z" transform="translate(-0.85 -2.23)"/><path d="M42.51,27.39h0a.74.74,0,0,0,0,1.47h0a.74.74,0,0,0,.72-.75.75.75,0,0,0-.74-.72Z" transform="translate(-0.85 -2.23)"/></g><g style="opacity:0.71"><path d="M15.65,31.08a.24.24,0,0,1,0-.47h0a.23.23,0,0,1,.24.23.3.3,0,0,1-.06.17.27.27,0,0,1-.17.07Z" transform="translate(-0.85 -2.23)"/><path d="M15.66,30.11h0a.74.74,0,0,0,0,1.47h0a.74.74,0,0,0,0-1.47Z" transform="translate(-0.85 -2.23)"/></g><g style="opacity:0.71"><path d="M5.25,17.11a.24.24,0,0,1,0-.47h0a.24.24,0,0,1,.25.23.23.23,0,0,1-.07.17.2.2,0,0,1-.16.07Z" transform="translate(-0.85 -2.23)"/><path d="M5.25,16.14h0a.74.74,0,0,0,0,1.47h0A.74.74,0,0,0,6,16.86a.75.75,0,0,0-.74-.72Z" transform="translate(-0.85 -2.23)"/></g><g style="opacity:0.71"><path d="M29.64,33.32a.23.23,0,0,1-.24-.22.24.24,0,0,1,.23-.25h0a.24.24,0,0,1,.24.23.27.27,0,0,1-.06.17.23.23,0,0,1-.17.07Z" transform="translate(-0.85 -2.23)"/><path d="M29.64,32.35h0a.74.74,0,0,0,0,1.48h0a.74.74,0,0,0,0-1.47Z" transform="translate(-0.85 -2.23)"/></g><g style="opacity:0.71"><path d="M14.87,37.21a.23.23,0,0,1-.24-.22.25.25,0,0,1,.23-.25h0a.24.24,0,0,1,.24.23.27.27,0,0,1-.06.17.23.23,0,0,1-.17.07Z" transform="translate(-0.85 -2.23)"/><path d="M14.87,36.24h0a.74.74,0,0,0,0,1.47h0a.74.74,0,0,0,0-1.47Z" transform="translate(-0.85 -2.23)"/></g><g style="opacity:0.71"><path d="M38.79,34.87a.24.24,0,0,1-.24-.23.23.23,0,0,1,.07-.17.2.2,0,0,1,.16-.07h0a.24.24,0,0,1,.25.22.21.21,0,0,1-.07.17.2.2,0,0,1-.16.08Z" transform="translate(-0.85 -2.23)"/><path d="M38.79,33.9h0a.74.74,0,0,0,0,1.47h0a.74.74,0,0,0,0-1.47Z" transform="translate(-0.85 -2.23)"/></g><g style="opacity:0.71"><path d="M33,39.72a.23.23,0,0,1-.24-.23.3.3,0,0,1,.06-.17.23.23,0,0,1,.17-.07h0a.23.23,0,0,1,.24.23.3.3,0,0,1-.06.17.27.27,0,0,1-.17.07Z" transform="translate(-0.85 -2.23)"/><path d="M33,38.75h0a.74.74,0,0,0,0,1.47h0a.74.74,0,0,0,0-1.47Z" transform="translate(-0.85 -2.23)"/></g><g style="opacity:0.71"><path d="M24.78,44.29a.23.23,0,0,1-.24-.23.2.2,0,0,1,.07-.16.2.2,0,0,1,.16-.08h0a.23.23,0,0,1,.24.23.24.24,0,0,1-.06.17.23.23,0,0,1-.17.07Z" transform="translate(-0.85 -2.23)"/><path d="M24.78,43.32h0a.74.74,0,0,0,0,1.47h0a.74.74,0,0,0,0-1.47Z" transform="translate(-0.85 -2.23)"/></g></svg>