<svg id="Layer_3" data-name="Layer 3" xmlns="http://www.w3.org/2000/svg" viewBox="0 0 48 47.96"><title>vLine-stroke</title><path d="M.86,17.63V30.34a3.07,3.07,0,0,1-.13-.5.14.14,0,0,1,0-.06h0c-.08-.31-.15-.62-.22-.93s-.07-.33-.09-.5-.08-.43-.11-.65c0,0,0,0,0,0s0-.23,0-.34,0-.34-.07-.5c0-.33-.07-.66-.1-1l0-.51,0-1c0-.11,0-.22,0-.33v-.17c0-.34,0-.67,0-1l0-.5c0-.34.05-.67.09-1,0-.16,0-.33.07-.5s0-.34.07-.51h0c0-.16.05-.32.08-.48a4,4,0,0,1,.09-.5c.06-.34.14-.67.23-1a.36.36,0,0,1,0-.1h0c0-.13.06-.27.1-.4S.84,17.69.86,17.63Z" transform="translate(0 -0.02)"/><path d="M3.34,11.81V36.19a3.79,3.79,0,0,1-.2-.34l-.05-.09a8.82,8.82,0,0,1-.48-.91,1.06,1.06,0,0,1-.11-.21c0-.1-.1-.19-.14-.29s0,0,0,0V13.69c.05-.11.1-.22.16-.33l0,0a8.75,8.75,0,0,1,.53-1,.3.3,0,0,1,0-.08C3.17,12.09,3.25,12,3.34,11.81Z" transform="translate(0 -0.02)"/><path d="M5.82,8.35v31.3l-.25-.29c-.14-.16-.27-.33-.41-.5s-.23-.29-.34-.44V9.59L5,9.31l.4-.5Z" transform="translate(0 -0.02)"/><path d="M8.3,5.86V42.14l-.07-.06L8,41.86c-.24-.2-.46-.42-.68-.63V6.77c.16-.16.33-.31.5-.46s.28-.26.43-.39Z" transform="translate(0 -0.02)"/><path d="M10.79,4V44l-.24-.15c-.25-.16-.48-.33-.72-.51l0,0V4.67l.52-.37Z" transform="translate(0 -0.02)"/><path d="M13.27,2.54V45.46l-.18-.09c-.28-.14-.54-.28-.82-.44V3.07l.49-.27C12.93,2.71,13.09,2.62,13.27,2.54Z" transform="translate(0 -0.02)"/><path d="M15.75,1.46V46.53l-.44-.16a5.55,5.55,0,0,1-.56-.24V1.86l.14-.06Z" transform="translate(0 -0.02)"/><path d="M18.23.71V47.29l-.1,0c-.3-.07-.6-.16-.9-.25V1c.3-.09.6-.18.9-.25Z" transform="translate(0 -0.02)"/><path d="M19.71.39V47.61l.81.13h0l.18,0V.24Z" transform="translate(0 -0.02)"/><polygon points="23.19 0 23.19 47.96 22.19 47.9 22.19 0.06 23.19 0"/><path d="M24.67,0V48c.34,0,.67,0,1,0V.07Z" transform="translate(0 -0.02)"/><path d="M27.15.22V47.78l.32,0h0c.22,0,.45-.06.67-.11V.37Z" transform="translate(0 -0.02)"/><path d="M30.63.93V47.07l-.76.2-.24,0V.67l.24.06Z" transform="translate(0 -0.02)"/><path d="M33.11,1.8V46.19l-.42.18c-.19.07-.38.15-.58.21V1.41C32.45,1.53,32.78,1.66,33.11,1.8Z" transform="translate(0 -0.02)"/><path d="M35.6,3V45c-.23.13-.45.26-.68.37l-.32.16V2.48l.64.32Z" transform="translate(0 -0.02)"/><path d="M38.08,4.58V43.43c-.21.15-.41.3-.63.44l-.37.24V3.89c.21.13.41.27.61.41Z" transform="translate(0 -0.02)"/><path d="M40.56,6.63V41.37l-.54.49-.25.22-.21.18V5.74l.07.06.14.12.44.39Z" transform="translate(0 -0.02)"/><path d="M43,9.4V38.6a2.56,2.56,0,0,1-.2.26c-.14.17-.27.34-.41.5s-.25.3-.39.45V8.19c.18.2.36.41.53.62l.4.5Z" transform="translate(0 -0.02)"/><path d="M45.52,13.4V34.6s0,0,0,0a2,2,0,0,1-.1.21c-.15.31-.31.61-.49.91l0,.09c-.09.17-.19.34-.29.5l0,.08V11.57l.14.24c.09.14.17.28.25.43a.3.3,0,0,1,0,.08,8.75,8.75,0,0,1,.53,1s0,0,0,0S45.51,13.39,45.52,13.4Z" transform="translate(0 -0.02)"/><path d="M48,24c0,.44,0,.88,0,1.31v0c0,.17,0,.34,0,.51l-.1,1c0,.16,0,.33-.07.5s0,.23,0,.34,0,0,0,0c0,.22-.07.44-.11.65s-.06.34-.09.5-.14.62-.22.93h0a.14.14,0,0,1,0,.06,3.07,3.07,0,0,1-.13.5c0,.17-.09.34-.14.51V17.13c.07.23.13.46.19.69s.07.27.1.4h0a.36.36,0,0,1,0,.1c.09.33.17.66.23,1a4,4,0,0,1,.09.5c0,.16.06.32.08.48h0c0,.17,0,.34.07.51s0,.34.07.5l.09,1h0C48,22.88,48,23.44,48,24Z" transform="translate(0 -0.02)"/></svg>